<svg xmlns="http://www.w3.org/2000/svg" version="1.0" preserveAspectRatio="xMidYMid meet" viewBox="0 0.1 200 199.9">
    <g transform="translate(0.000000,200.000000) scale(0.100000,-0.100000)" fill="#d7dbe5" stroke="none">
        <path d="M893 1943 l-93 -55 0 -122 0 -122 92 -54 c50 -30 99 -54 108 -54 9 0 58 24 108 54 l92 54 0 122 0 122 -96 56 c-53 31 -102 56 -108 55 -6 0 -53 -25 -103 -56z m179 -53 l68 -41 0 -83 0 -84 -70 -41 -70 -42 -70 42 -70 41 0 84 0 83 68 40 c37 23 69 41 71 41 3 0 35 -18 73 -40z"/>
        <path d="M917 1813 c-22 -22 25 -103 60 -103 27 0 113 62 113 81 0 30 -29 35 -71 11 -36 -21 -37 -21 -54 -2 -18 20 -36 25 -48 13z"/>
        <path d="M668 1776 c-181 -76 -362 -254 -438 -431 l-20 -46 26 -9 c14 -6 27 -10 29 -10 2 0 20 33 40 73 73 146 202 274 347 344 73 36 78 40 78 71 0 17 -1 32 -2 32 -2 -1 -28 -11 -60 -24z"/>
        <path d="M1270 1767 c0 -30 5 -34 78 -70 145 -70 274 -198 347 -344 20 -40 38 -73 40 -73 2 0 15 4 29 10 l26 9 -20 46 c-77 179 -267 363 -447 434 l-53 21 0 -33z"/>
        <path d="M947 1395 c-162 -57 -153 -276 13 -326 49 -15 104 -1 151 38 104 88 64 256 -69 293 -46 12 -48 12 -95 -5z m123 -82 c22 -20 33 -40 37 -69 5 -36 1 -45 -27 -77 -28 -33 -37 -37 -80 -37 -74 0 -119 54 -106 125 15 79 116 112 176 58z"/>
        <path d="M93 1174 l-93 -55 0 -119 0 -119 93 -56 c51 -30 100 -55 110 -55 18 0 188 97 199 114 4 6 8 58 8 116 0 58 -4 110 -8 116 -11 17 -181 114 -200 114 -9 0 -59 -25 -109 -56z m247 -174 l0 -85 -68 -41 -69 -41 -69 42 -69 42 0 83 0 83 69 42 69 42 69 -41 68 -41 0 -85z"/>
        <path d="M222 1038 c-31 -19 -34 -19 -52 -3 -23 21 -54 16 -58 -10 -2 -18 49 -85 66 -85 14 0 112 65 117 78 6 17 -12 42 -29 41 -6 0 -26 -10 -44 -21z"/>
        <path d="M1690 1178 c-47 -28 -88 -56 -92 -62 -10 -14 -10 -218 0 -232 11 -17 181 -114 198 -114 9 0 58 25 110 55 l94 56 0 119 0 119 -93 56 c-51 30 -102 55 -112 54 -11 0 -58 -23 -105 -51z m213 -75 l38 -24 -3 -81 -3 -81 -69 -42 -69 -42 -69 41 -68 41 0 85 0 85 68 41 67 41 35 -20 c19 -12 52 -31 73 -44z"/>
        <path d="M1818 1038 c-35 -20 -39 -21 -56 -5 -24 22 -48 22 -56 1 -7 -17 35 -81 59 -90 16 -7 125 63 125 79 0 13 -19 37 -29 37 -4 0 -23 -10 -43 -22z"/>
        <path d="M1265 1102 c-6 -4 -16 -20 -23 -35 -12 -28 -16 -31 -65 -41 -40 -9 -44 -32 -12 -66 23 -24 27 -35 22 -65 -11 -65 7 -79 63 -50 26 14 33 13 64 -1 51 -25 70 -13 62 37 -5 34 -3 45 19 71 14 16 25 35 25 42 0 20 -22 36 -52 36 -22 0 -32 8 -48 40 -20 39 -34 47 -55 32z m45 -152 c-5 -10 -6 -20 -3 -24 4 -3 -4 -5 -18 -4 -13 2 -29 12 -35 23 -9 16 -7 23 9 36 18 15 22 15 38 1 13 -11 15 -20 9 -32z"/>
        <path d="M757 1049 c-20 -11 -49 -38 -65 -61 -26 -40 -27 -46 -30 -200 l-3 -158 27 -25 27 -25 287 0 287 0 27 26 c23 24 26 35 26 93 0 65 -1 67 -30 78 l-29 11 -3 -72 -3 -71 -275 0 -275 0 -3 132 c-2 106 1 139 13 163 20 39 67 68 122 76 l43 6 -36 24 c-42 29 -57 29 -107 3z"/>
        <path d="M925 998 c-5 -17 -35 -168 -35 -178 0 -14 94 -100 110 -100 18 0 110 87 110 103 -1 7 -9 50 -19 97 -17 85 -17 85 -47 82 -16 -2 -30 -4 -30 -5 -1 -1 5 -39 14 -85 15 -79 15 -82 -4 -97 -24 -18 -24 -18 -48 0 -19 15 -19 18 -4 97 9 46 15 83 14 84 0 1 -13 4 -29 8 -18 4 -29 2 -32 -6z"/>
        <path d="M233 710 l-23 -9 20 -46 c50 -118 175 -269 281 -342 47 -33 144 -84 192 -102 26 -10 27 -9 27 22 0 30 -5 34 -78 70 -146 72 -276 200 -348 345 -20 39 -39 72 -42 71 -4 0 -17 -4 -29 -9z"/>
        <path d="M1714 683 c-26 -63 -120 -196 -173 -246 -58 -54 -170 -129 -229 -153 -38 -14 -42 -20 -42 -50 0 -32 1 -33 28 -23 115 44 260 144 336 234 47 55 108 150 139 218 l17 38 -26 9 c-35 14 -33 14 -50 -27z"/>
        <path d="M897 413 l-97 -57 0 -122 0 -122 96 -56 c53 -31 100 -56 104 -56 4 0 51 25 104 56 l96 56 0 122 0 122 -87 51 c-49 29 -95 54 -103 58 -8 3 -58 -20 -113 -52z m174 -53 l69 -41 0 -84 0 -84 -70 -42 -70 -41 -70 41 -70 42 0 84 0 84 68 40 c37 22 68 40 70 41 2 0 35 -18 73 -40z"/>
        <path d="M923 283 c-33 -13 13 -103 53 -103 30 0 114 60 114 81 0 30 -28 34 -69 11 -38 -22 -38 -22 -56 -2 -19 21 -22 22 -42 13z"/>
    </g>
</svg>