<svg xmlns="http://www.w3.org/2000/svg" version="1.0" preserveAspectRatio="xMidYMid meet" viewBox="10.2 10.95 95.6 115.58">
    <g transform="translate(0.000000,137.000000) scale(0.100000,-0.100000)" fill="#d7dbe5" stroke="none">
        <path d="M209 1247 c-36 -28 -39 -51 -39 -326 0 -174 4 -271 10 -271 6 0 10 97 10 270 l0 271 25 24 24 25 341 0 341 0 24 -25 25 -24 0 -271 c0 -173 4 -270 10 -270 6 0 10 97 10 271 0 275 -3 298 -39 326 -23 18 -719 18 -742 0z"/>
        <path d="M336 1122 c-25 -25 -28 -26 -40 -9 -14 18 -36 23 -36 9 0 -5 11 -19 25 -32 l26 -24 35 36 c20 19 32 38 27 41 -5 3 -22 -6 -37 -21z"/>
        <path d="M440 1140 c0 -6 81 -10 224 -10 139 0 227 4 231 10 4 7 -73 10 -224 10 -147 0 -231 -4 -231 -10z"/>
        <path d="M440 1091 c0 -16 44 -20 199 -19 160 1 191 4 191 19 0 5 -88 9 -195 9 -107 0 -195 -4 -195 -9z"/>
        <path d="M440 955 c0 -13 28 -15 225 -13 142 2 225 7 225 13 0 6 -83 11 -225 13 -197 2 -225 0 -225 -13z"/>
        <path d="M342 938 c-19 -20 -24 -20 -47 -8 -29 16 -43 7 -25 -15 29 -35 46 -36 79 -1 18 19 29 36 24 39 -5 3 -19 -4 -31 -15z"/>
        <path d="M440 900 c0 -6 72 -10 195 -10 123 0 195 4 195 10 0 6 -72 10 -195 10 -123 0 -195 -4 -195 -10z"/>
        <path d="M440 770 c0 -6 84 -10 231 -10 151 0 228 3 224 10 -4 6 -92 10 -231 10 -143 0 -224 -4 -224 -10z"/>
        <path d="M333 748 c-21 -20 -23 -21 -41 -5 -30 28 -35 6 -5 -25 l27 -28 33 32 c18 18 33 36 33 40 0 15 -26 8 -47 -14z"/>
        <path d="M440 710 c0 -6 72 -10 195 -10 123 0 195 4 195 10 0 6 -72 10 -195 10 -123 0 -195 -4 -195 -10z"/>
        <path d="M192 624 c-13 -9 -21 -22 -18 -30 10 -25 -5 -44 -34 -44 -24 0 -30 -5 -35 -31 -6 -24 -3 -34 9 -41 21 -12 20 -36 0 -59 -15 -17 -15 -20 1 -45 11 -16 23 -24 34 -21 29 7 49 -10 44 -37 -4 -20 0 -25 27 -31 23 -5 35 -3 43 8 7 9 22 17 35 19 12 2 22 8 22 13 -1 15 -64 5 -73 -11 -10 -18 -27 -9 -27 15 0 20 -43 65 -53 55 -3 -4 -14 -4 -23 0 -16 6 -16 8 0 25 20 22 15 70 -9 84 -19 10 -10 27 14 27 24 0 63 43 56 62 -9 22 15 35 27 14 11 -19 67 -14 84 9 13 17 24 10 24 -15 0 -23 46 -65 55 -50 4 6 0 19 -9 29 -9 10 -16 27 -16 38 0 29 -58 44 -72 19 -11 -20 -42 -21 -58 -1 -16 19 -20 19 -48 -1z"/>
        <path d="M808 633 c-10 -2 -18 -14 -18 -25 0 -12 -7 -29 -16 -39 -9 -10 -14 -23 -12 -29 5 -17 58 28 58 49 0 25 11 33 24 16 17 -23 73 -28 84 -9 12 21 36 8 27 -14 -7 -19 32 -62 56 -62 23 0 34 -19 16 -26 -23 -9 -30 -64 -11 -85 16 -17 16 -19 0 -25 -9 -4 -20 -4 -23 0 -10 10 -53 -35 -53 -55 0 -24 -17 -33 -27 -15 -9 17 -71 26 -75 11 -2 -5 8 -11 22 -13 14 -2 30 -10 37 -19 18 -24 73 -8 73 22 0 27 22 48 42 40 9 -4 22 4 32 20 16 24 16 28 2 44 -21 23 -20 48 0 59 12 7 15 17 9 41 -5 26 -11 31 -35 31 -29 0 -44 19 -34 44 3 9 -5 22 -20 32 -25 15 -28 15 -45 0 -22 -20 -50 -21 -57 -1 -6 15 -22 17 -56 8z"/>
        <path d="M476 568 c-23 -9 -27 -15 -23 -37 8 -38 -21 -69 -59 -64 -26 4 -31 1 -43 -32 -12 -34 -11 -38 8 -51 28 -20 28 -67 0 -86 -20 -13 -20 -15 -5 -51 13 -33 18 -37 41 -31 37 9 68 -21 60 -57 -6 -25 -2 -30 31 -44 34 -14 38 -14 50 2 7 10 14 21 14 26 0 4 14 7 30 7 17 0 30 -3 30 -7 0 -5 7 -16 14 -26 12 -16 16 -16 50 -2 33 14 37 19 31 44 -8 36 23 66 60 57 23 -6 28 -2 41 31 15 36 15 38 -5 51 -28 19 -28 66 0 86 19 13 20 17 8 51 -11 31 -17 36 -40 33 -38 -4 -70 27 -63 61 5 23 1 28 -32 40 -36 13 -39 12 -52 -8 -19 -28 -67 -28 -82 -1 -12 22 -21 23 -64 8z m53 -36 c13 -25 85 -23 104 3 19 25 49 13 45 -19 -4 -34 37 -76 74 -76 37 0 48 -26 19 -46 -29 -21 -30 -86 0 -105 29 -20 16 -53 -18 -44 -19 4 -30 -1 -51 -26 -15 -19 -25 -42 -24 -54 4 -31 -27 -41 -45 -15 -20 28 -86 28 -106 0 -18 -26 -49 -16 -45 15 1 12 -9 35 -24 54 -21 25 -32 30 -51 26 -34 -9 -47 24 -18 44 30 19 29 84 0 105 -29 20 -18 46 19 46 32 0 89 51 77 70 -10 16 2 40 19 40 9 0 20 -8 25 -18z"/>
        <path d="M526 408 c-40 -35 -43 -78 -11 -116 21 -26 34 -32 65 -32 51 0 95 48 86 94 -8 40 -49 76 -86 76 -16 0 -40 -10 -54 -22z m102 -27 c21 -27 11 -73 -20 -91 -25 -13 -31 -13 -55 0 -30 17 -38 38 -29 74 11 44 75 54 104 17z"/>
        <path d="M242 498 c-15 -15 -15 -61 0 -76 7 -7 24 -12 38 -12 33 0 50 17 50 50 0 33 -17 50 -50 50 -14 0 -31 -5 -38 -12z m63 -38 c0 -18 -6 -26 -23 -28 -24 -4 -38 18 -28 44 3 9 15 14 28 12 17 -2 23 -10 23 -28z"/>
        <path d="M843 498 c-31 -40 -12 -88 36 -88 34 0 51 17 51 50 0 14 -5 31 -12 38 -16 16 -63 15 -75 0z m62 -38 c0 -18 -6 -26 -23 -28 -13 -2 -25 3 -28 12 -10 26 4 48 28 44 17 -2 23 -10 23 -28z"/>
    </g>
</svg>