<svg xmlns="http://www.w3.org/2000/svg" version="1.0" preserveAspectRatio="xMidYMid meet" viewBox="38.3 53.08 567.7 628.92">
    <g transform="translate(0.000000,749.000000) scale(0.100000,-0.100000)" fill="#d7dbe5" stroke="none">
        <path d="M3637 6949 c-101 -24 -216 -104 -267 -187 l-25 -41 -362 -3 c-347 -3 -363 -4 -389 -24 -57 -42 -69 -69 -72 -164 l-4 -89 -386 -3 c-430 -4 -425 -3 -530 -75 -60 -41 -115 -111 -146 -186 -21 -52 -21 -56 -24 -1043 l-2 -991 95 -161 c105 -178 123 -192 158 -131 16 29 17 101 17 1127 0 1058 1 1098 19 1126 10 15 32 37 47 47 27 18 53 19 391 19 l361 0 4 -89 c3 -96 15 -123 72 -165 27 -21 34 -21 1134 -24 1238 -3 1168 -7 1217 66 22 32 25 48 25 124 l0 88 364 0 c362 0 363 0 397 -23 19 -12 40 -34 47 -49 9 -20 12 -514 12 -2374 0 -1292 0 -2429 0 -2527 l0 -177 -40 -40 -40 -40 -1957 0 c-1898 0 -1959 1 -1989 19 -60 36 -64 60 -64 351 0 249 -1 263 -21 291 -37 52 -49 41 -154 -133 l-97 -163 5 -160 c5 -185 20 -242 91 -327 49 -60 148 -122 217 -137 35 -8 659 -11 2015 -11 1959 0 1965 0 2026 21 132 44 224 139 262 268 14 49 16 299 16 2596 0 2292 -2 2547 -16 2596 -33 112 -109 199 -223 253 l-66 31 -392 3 -393 3 0 81 c0 96 -17 138 -69 170 -35 23 -42 23 -393 26 l-357 3 -20 33 c-29 46 -120 130 -169 155 -90 46 -227 63 -325 40z m219 -188 c80 -36 137 -106 168 -203 5 -17 32 -18 385 -18 l380 0 3 -218 c2 -121 2 -226 0 -235 -3 -16 -84 -17 -1048 -17 l-1044 0 0 235 0 235 383 0 384 0 12 42 c26 85 89 151 176 185 48 18 154 15 201 -6z"/>
        <path d="M3115 6364 c-33 -36 -33 -87 0 -119 l24 -25 609 0 609 0 21 23 c31 33 30 90 -3 122 l-24 25 -606 0 -606 0 -24 -26z"/>
        <path d="M2255 5531 c-51 -23 -66 -41 -72 -90 -7 -48 12 -82 60 -111 31 -20 63 -20 1500 -20 1337 0 1472 1 1503 16 46 22 64 50 64 100 0 53 -36 99 -88 114 -25 6 -527 10 -1482 10 -1376 0 -1447 -1 -1485 -19z"/>
        <path d="M2243 4960 c-48 -29 -67 -63 -60 -111 7 -49 38 -86 86 -99 23 -6 556 -10 1484 -10 1208 0 1453 2 1481 14 48 20 76 61 76 110 0 50 -18 78 -64 100 -31 15 -166 16 -1503 16 -1437 0 -1469 0 -1500 -20z"/>
        <path d="M2238 4394 c-53 -28 -72 -98 -43 -154 32 -62 -3 -60 865 -60 868 0 833 -2 865 60 30 57 10 127 -45 155 -43 22 -1601 22 -1642 -1z"/>
        <path d="M1161 3904 c-113 -46 -207 -87 -210 -90 -3 -3 14 -80 38 -172 l42 -167 -67 -68 c-37 -37 -74 -67 -82 -67 -8 0 -85 18 -170 41 -84 22 -156 38 -160 35 -12 -13 -172 -410 -166 -415 3 -3 69 -44 147 -91 l142 -85 3 -100 2 -100 -150 -89 c-83 -49 -149 -94 -147 -100 31 -80 162 -393 167 -399 4 -4 82 11 174 34 l168 42 70 -70 69 -70 -42 -166 c-23 -92 -40 -169 -37 -172 3 -4 97 -44 209 -91 151 -62 205 -81 211 -72 4 7 44 76 90 152 l83 139 94 -2 c52 -1 98 -4 102 -7 4 -2 44 -67 90 -144 45 -77 84 -142 88 -144 5 -3 409 159 418 168 1 1 -17 78 -41 171 l-42 170 69 68 68 69 170 -42 c93 -24 171 -41 173 -39 1 2 21 49 44 104 22 55 61 148 85 206 l44 106 -151 89 -151 89 -1 98 -1 98 152 91 152 90 -84 201 c-46 111 -87 205 -91 209 -5 5 -83 -11 -174 -35 l-167 -43 -69 70 -69 71 43 169 c24 94 43 170 41 171 -1 1 -47 20 -102 43 -55 22 -148 61 -208 86 l-107 45 -90 -152 -89 -152 -98 1 -98 1 -77 129 c-42 71 -83 139 -90 151 -13 21 -14 21 -217 -63z m679 -607 c147 -52 266 -156 339 -297 124 -239 82 -510 -109 -701 -119 -119 -261 -179 -425 -179 -339 1 -607 266 -606 600 0 177 51 301 176 426 82 83 148 125 250 157 75 24 91 26 200 23 77 -2 117 -9 175 -29z"/>
        <path d="M1735 2865 c-82 -79 -152 -144 -155 -145 -3 0 -43 34 -88 76 l-83 77 -50 -49 c-28 -27 -60 -61 -71 -77 l-20 -27 119 -114 c65 -62 135 -127 156 -145 l37 -33 213 203 c116 111 218 208 226 215 12 11 3 25 -54 88 -37 42 -70 76 -74 76 -3 0 -73 -65 -156 -145z"/>
        <path d="M5020 3653 c0 -17 174 -303 180 -296 11 12 170 291 170 297 0 3 -79 6 -175 6 -96 0 -175 -3 -175 -7z"/>
        <path d="M3829 3433 c5 -10 45 -80 89 -156 l80 -138 82 143 c46 79 87 149 93 156 7 9 -28 12 -172 12 -170 0 -181 -1 -172 -17z"/>
        <path d="M4860 2905 c-179 -173 -327 -314 -330 -314 -3 -1 -93 72 -200 160 -107 89 -225 186 -263 216 l-67 55 -53 -48 c-28 -26 -155 -148 -282 -270 -126 -122 -276 -266 -333 -320 l-102 -99 46 -49 46 -49 76 75 c43 40 129 123 192 184 63 60 179 173 258 249 79 77 147 141 152 143 5 2 123 -91 262 -205 139 -115 258 -212 265 -216 6 -4 20 1 30 11 10 10 174 168 365 351 191 183 350 337 354 343 6 9 -73 99 -86 98 -3 -1 -151 -142 -330 -315z"/>
        <path d="M4870 2015 l0 -535 200 0 200 0 0 535 0 535 -200 0 -200 0 0 -535z"/>
        <path d="M3810 1955 l0 -475 200 0 200 0 0 475 0 475 -200 0 -200 0 0 -475z"/>
        <path d="M4340 1850 l0 -370 200 0 200 0 0 370 0 370 -200 0 -200 0 0 -370z"/>
        <path d="M3280 1740 l0 -260 200 0 200 0 0 260 0 260 -200 0 -200 0 0 -260z"/>
    </g>
</svg>