<svg version="1.0" xmlns="http://www.w3.org/2000/svg"
    width="295.000000pt" height="309.000000pt" viewBox="0 0 295.000000 309.000000"
    preserveAspectRatio="xMidYMid meet">
    <metadata>
        Created by potrace 1.16, written by Peter Selinger 2001-2019
</metadata>
    <g transform="translate(0.000000,309.000000) scale(0.100000,-0.100000)"
        fill="#d7dbe5" stroke="none">
        <path
            d="M1688 2517 c-153 -57 -243 -183 -242 -337 1 -208 167 -362 374 -348
129 10 236 81 292 196 30 60 33 76 33 152 0 101 -27 171 -94 242 -62 68 -138
101 -241 105 -55 2 -98 -2 -122 -10z" />
        <path
            d="M986 2248 c-24 -7 -59 -30 -92 -62 -43 -43 -54 -60 -64 -107 -50
-225 207 -380 381 -230 71 60 97 155 68 252 -34 113 -170 182 -293 147z m143
-72 c142 -74 123 -275 -29 -316 -72 -19 -160 21 -195 91 -29 55 -13 152 31
191 54 48 137 62 193 34z" />
        <path
            d="M2446 2245 c-90 -32 -147 -108 -154 -206 -5 -71 9 -115 53 -166 103
-120 295 -106 377 27 57 93 47 196 -29 280 -65 73 -158 97 -247 65z m165 -78
c52 -35 79 -82 79 -139 0 -80 -49 -145 -125 -168 -114 -33 -231 77 -209 196
20 108 165 172 255 111z" />
        <path
            d="M1615 1776 c-130 -31 -233 -114 -292 -233 -32 -64 -37 -84 -37 -146
l-1 -72 520 0 520 0 3 37 c2 21 -4 66 -13 100 -40 156 -156 270 -320 313 -72
18 -305 19 -380 1z" />
        <path
            d="M910 1729 c-85 -24 -168 -111 -195 -204 -22 -75 -17 -224 8 -239 33
-20 47 16 47 122 0 84 3 100 27 144 30 55 87 100 148 117 59 16 203 13 250 -5
22 -9 51 -17 65 -18 20 -1 25 4 25 24 0 19 -9 30 -40 45 -33 17 -62 20 -170
22 -71 1 -146 -3 -165 -8z" />
        <path
            d="M2351 1722 c-49 -19 -68 -41 -57 -67 7 -19 23 -17 91 9 51 19 196 21
259 2 65 -20 106 -54 140 -117 26 -46 30 -65 33 -153 3 -106 12 -128 41 -110
28 18 29 184 2 256 -26 71 -79 132 -144 166 -47 24 -62 27 -186 29 -110 2
-143 0 -179 -15z" />
        <path
            d="M1017 1299 c-9 -6 -35 -45 -57 -88 -43 -86 -41 -85 -149 -97 -69 -7
-101 -28 -101 -65 0 -12 28 -50 67 -90 l66 -69 -11 -64 c-19 -103 -16 -134 13
-148 23 -10 37 -6 113 31 l87 43 78 -42 c56 -30 84 -40 102 -36 42 11 47 36
30 133 l-15 88 65 65 c68 69 81 104 49 130 -8 8 -54 19 -101 26 -47 7 -86 14
-88 16 -1 2 -21 40 -44 86 -23 45 -45 82 -50 82 -5 0 -15 2 -23 5 -7 2 -21 0
-31 -6z" />
        <path
            d="M2545 1301 c-11 -5 -37 -43 -59 -89 l-39 -81 -62 -10 c-34 -6 -70
-11 -81 -11 -32 0 -64 -29 -64 -58 0 -19 18 -44 65 -92 l65 -65 -16 -89 c-14
-80 -14 -90 1 -112 22 -33 46 -30 135 17 l76 41 84 -42 c129 -65 153 -46 130
104 l-12 81 66 66 c41 41 66 74 66 87 0 38 -32 59 -101 66 -108 12 -106 11
-149 97 -22 43 -49 83 -59 89 -22 11 -20 11 -46 1z" />
        <path
            d="M1770 1241 c-8 -5 -35 -50 -59 -99 l-44 -90 -91 -12 c-164 -22 -175
-52 -63 -169 l74 -76 -13 -65 c-35 -180 -8 -204 142 -128 l83 43 86 -43 c97
-48 128 -52 149 -19 14 20 13 33 -1 120 l-16 98 71 72 c76 76 89 110 56 138
-9 8 -60 21 -113 29 l-96 15 -46 88 c-55 106 -75 123 -119 98z" />
    </g>
</svg>