<svg xmlns="http://www.w3.org/2000/svg" version="1.0" preserveAspectRatio="xMidYMid meet" viewBox="43.31 24.15 205.69 68.72">
<metadata>
Created by potrace 1.16, written by Peter Selinger 2001-2019
</metadata>
<g transform="translate(0.000000,122.000000) scale(0.100000,-0.100000)" fill="#63769c" stroke="none">
<path d="M2085 968 c-2 -7 -6 -42 -7 -78 l-3 -65 -38 3 c-51 5 -98 -13 -133 -49 -26 -27 -29 -37 -29 -99 0 -62 3 -72 29 -99 35 -36 84 -48 134 -33 25 8 38 8 43 1 3 -6 19 -9 35 -7 l29 3 0 215 0 215 -28 3 c-16 2 -29 -2 -32 -10z m-17 -220 c18 -18 15 -98 -5 -120 -20 -22 -70 -23 -95 -1 -26 23 -24 87 4 113 24 22 77 27 96 8z"/>
<path d="M514 816 c-68 -31 -102 -129 -67 -196 10 -19 34 -45 53 -58 70 -48 211 -11 181 47 -12 22 -36 28 -46 11 -3 -5 -24 -10 -45 -10 -71 0 -104 76 -54 126 25 26 61 29 106 10 26 -12 48 39 26 60 -21 21 -116 28 -154 10z"/>
<path d="M795 811 c-50 -23 -75 -65 -75 -128 0 -90 57 -143 153 -143 86 0 152 73 144 159 -11 106 -118 160 -222 112z m122 -73 c49 -46 17 -128 -50 -128 -44 0 -71 30 -71 77 0 65 73 96 121 51z"/>
<path d="M1183 816 c-18 -8 -33 -11 -33 -6 0 6 -16 10 -35 10 l-36 0 3 -137 3 -138 32 -3 32 -3 3 103 c3 102 3 103 31 112 51 18 61 1 67 -110 l5 -99 33 -3 32 -3 1 68 c1 37 0 78 -1 90 -2 26 32 63 58 63 34 0 42 -21 42 -109 0 -48 4 -92 9 -99 5 -8 21 -12 37 -10 l29 3 3 113 3 113 -30 29 c-35 35 -71 38 -122 11 -32 -17 -38 -18 -51 -5 -21 22 -78 26 -115 10z"/>
<path d="M1631 812 c-47 -23 -72 -61 -78 -114 -7 -59 23 -119 71 -142 43 -20 118 -21 156 -1 27 14 28 18 18 41 -8 17 -16 23 -27 18 -30 -13 -61 -16 -85 -10 -26 6 -56 31 -56 46 0 5 44 11 98 12 l97 3 3 32 c9 97 -104 163 -197 115z"/>
<path d="M2214 768 c13 -29 41 -90 62 -136 31 -69 36 -88 28 -110 -7 -21 -16 -27 -38 -27 -37 -1 -57 -42 -30 -62 41 -30 92 -6 124 56 17 35 130 317 130 327 0 2 -18 4 -39 4 l-40 0 -27 -85 c-16 -47 -31 -82 -34 -77 -4 4 -21 42 -40 85 l-33 77 -43 0 -44 0 24 -52z"/>
<path d="M472 438 c-20 -20 -14 -35 30 -72 65 -56 137 -79 233 -74 89 5 149 28 211 82 34 29 36 33 23 54 -8 12 -17 22 -20 22 -4 0 -30 -16 -59 -35 -59 -40 -106 -55 -172 -55 -56 0 -147 32 -187 66 -33 27 -42 29 -59 12z"/>
</g>
</svg>