<svg xmlns="http://www.w3.org/2000/svg" version="1.0" preserveAspectRatio="xMidYMid meet" viewBox="29 40 173 67.11">
<metadata>
Created by potrace 1.16, written by Peter Selinger 2001-2019
</metadata>
<g transform="translate(0.000000,163.000000) scale(0.100000,-0.100000)" fill="#63769c" stroke="none">
<path d="M373 1203 c-77 -50 -83 -71 -83 -309 0 -199 1 -211 23 -246 12 -20 35 -47 52 -60 28 -22 37 -23 239 -26 116 -2 220 -1 233 3 33 8 94 65 109 102 20 46 20 411 0 456 -16 39 -61 82 -99 96 -17 7 -112 11 -231 11 -202 0 -202 0 -243 -27z m465 -43 c65 -40 72 -64 72 -265 0 -280 -5 -285 -290 -285 -166 0 -188 2 -217 20 -57 35 -63 58 -63 262 0 195 6 224 53 257 38 28 49 30 232 30 163 1 183 -1 213 -19z"/>
<path d="M823 1103 c-4 -16 -7 -114 -6 -219 1 -202 10 -251 39 -222 19 19 22 431 4 454 -18 21 -29 17 -37 -13z"/>
<path d="M583 1063 c-38 -7 -73 -52 -73 -93 0 -47 23 -69 102 -95 68 -22 90 -44 69 -69 -18 -21 -85 -21 -122 1 -27 16 -30 16 -46 0 -17 -17 -17 -19 5 -38 56 -45 149 -48 199 -5 22 19 28 33 28 66 0 50 -24 74 -88 91 -56 14 -87 35 -87 58 0 33 60 42 110 16 27 -14 30 -14 40 6 15 27 0 45 -49 59 -37 10 -49 11 -88 3z"/>
<path d="M931 1219 c-23 -9 -23 -11 -8 -26 14 -14 43 -16 214 -14 193 2 199 2 233 -21 62 -41 70 -71 70 -261 0 -182 -6 -213 -55 -257 -26 -25 -28 -25 -237 -27 -151 -1 -214 -5 -225 -14 -13 -12 -13 -14 3 -26 27 -20 424 -18 463 1 41 22 89 81 96 118 4 18 5 121 3 230 l-3 196 -30 38 c-57 70 -74 74 -300 73 -110 0 -211 -5 -224 -10z"/>
<path d="M1458 1223 c-22 -5 -23 -17 -3 -33 11 -9 68 -12 213 -11 191 2 199 1 232 -21 65 -43 71 -69 68 -275 -3 -165 -5 -184 -24 -210 -42 -58 -69 -64 -282 -62 -163 2 -196 0 -209 -13 -32 -33 14 -40 241 -36 l213 3 37 29 c67 51 76 84 76 301 0 164 -3 196 -19 230 -21 46 -54 79 -94 94 -27 11 -412 14 -449 4z"/>
<path d="M1357 1123 c-12 -11 -8 -432 4 -454 10 -20 11 -20 24 -2 19 24 21 433 3 451 -14 14 -22 15 -31 5z"/>
<path d="M1623 1053 c-53 -26 -69 -91 -34 -134 11 -13 46 -32 82 -44 71 -23 93 -46 67 -71 -21 -21 -79 -20 -117 2 -30 18 -32 18 -48 1 -17 -17 -17 -19 5 -38 32 -26 98 -42 140 -34 19 4 48 20 65 36 25 26 29 35 24 66 -8 48 -23 61 -97 87 -70 24 -92 45 -71 70 17 20 63 21 101 1 27 -14 30 -14 45 8 14 20 14 23 -2 35 -20 15 -80 32 -108 31 -11 0 -34 -7 -52 -16z"/>
<path d="M1040 900 l0 -160 115 0 115 0 0 25 c0 25 -1 25 -85 25 l-85 0 0 135 0 135 -30 0 -30 0 0 -160z"/>
</g>
</svg>