<svg xmlns="http://www.w3.org/2000/svg" version="1.0" preserveAspectRatio="xMidYMid meet" viewBox="50.18 46.98 215.62 39.53">
<metadata>
Created by potrace 1.16, written by Peter Selinger 2001-2019
</metadata>
<g transform="translate(0.000000,130.000000) scale(0.100000,-0.100000)" fill="#63769c" stroke="none">
<path d="M536 818 c-2 -7 -9 -80 -16 -163 -6 -82 -13 -162 -16 -177 -5 -25 -3 -28 20 -28 14 0 26 1 26 3 8 64 30 321 30 345 0 26 -4 32 -20 32 -11 0 -22 -6 -24 -12z"/>
<path d="M639 823 c0 -5 -8 -90 -18 -190 l-17 -183 48 0 c26 0 48 1 48 3 0 1 7 74 15 162 21 231 24 215 -30 215 -25 0 -45 -3 -46 -7z"/>
<path d="M786 798 c-3 -18 -10 -91 -16 -163 -6 -71 -12 -142 -15 -157 l-4 -28 94 0 c111 0 99 -20 115 185 6 77 13 152 16 168 l6 27 -96 0 -95 0 -5 -32z"/>
<path d="M1083 818 c-24 -12 -53 -64 -53 -98 0 -30 23 -70 64 -109 49 -47 49 -111 0 -111 -24 0 -29 11 -25 53 2 13 -5 17 -28 17 -29 0 -31 -2 -31 -39 0 -56 26 -84 79 -84 70 0 112 59 96 133 -3 16 -26 49 -51 74 -47 48 -56 83 -29 110 17 16 44 12 46 -8 1 -6 2 -18 3 -26 0 -8 13 -16 29 -18 25 -3 27 -1 27 33 0 66 -64 103 -127 73z"/>
<path d="M1534 820 c-34 -14 -50 -51 -62 -146 -22 -169 -13 -216 45 -227 36 -7 88 15 104 44 12 24 38 196 39 257 0 62 -62 98 -126 72z m62 -150 c-7 -100 -13 -148 -22 -162 -8 -13 -51 -9 -57 5 -3 8 1 65 8 127 14 117 27 146 62 133 13 -5 15 -21 9 -103z"/>
<path d="M2208 820 c-24 -6 -28 -27 -62 -322 l-6 -58 175 -2 c96 -1 190 -2 207 -2 37 -1 26 -27 102 256 l34 127 -213 3 c-118 2 -224 1 -237 -2z m170 -62 c-2 -17 -10 -23 -28 -23 -24 0 -25 -3 -37 -110 -6 -61 -12 -118 -12 -127 -1 -22 -51 -25 -51 -4 0 13 11 103 24 204 4 28 2 32 -20 32 -19 0 -24 5 -24 25 0 24 2 25 76 25 72 0 75 -1 72 -22z m76 0 c3 -13 6 -49 6 -80 0 -100 11 -99 40 3 24 85 29 94 52 97 l25 3 -32 -108 c-18 -59 -38 -127 -44 -150 -11 -38 -15 -43 -41 -43 -35 0 -36 4 -45 150 -4 58 -9 115 -12 128 -4 18 -1 22 20 22 17 0 26 -7 31 -22z"/>
<path d="M1265 778 c-8 -63 -35 -301 -35 -315 0 -17 49 -17 55 0 2 6 6 38 10 70 6 57 7 57 40 57 54 0 84 33 96 108 10 63 2 96 -25 114 -6 4 -39 8 -73 8 l-62 0 -6 -42z"/>
<path d="M1720 806 c0 -18 -28 -270 -36 -318 -6 -37 -5 -38 24 -38 29 0 29 1 38 73 9 69 10 72 37 75 l27 3 0 -75 0 -76 28 0 c27 0 27 0 30 76 2 48 -2 81 -9 90 -9 11 -8 19 6 34 26 28 32 113 11 145 -15 23 -23 25 -86 25 -53 0 -70 -3 -70 -14z"/>
<path d="M1940 795 c0 -21 5 -25 30 -25 35 0 34 10 15 -150 -21 -174 -21 -172 13 -168 l27 3 17 155 c9 85 17 156 17 158 1 1 14 2 30 2 26 0 41 14 41 41 0 5 -43 9 -95 9 -95 0 -95 0 -95 -25z"/>
</g>
</svg>