<svg xmlns="http://www.w3.org/2000/svg" version="1.0" preserveAspectRatio="xMidYMid meet" viewBox="36 40 183 58.1">
<metadata>
Created by potrace 1.16, written by Peter Selinger 2001-2019
</metadata>
<g transform="translate(0.000000,142.000000) scale(0.100000,-0.100000)" fill="#63769c" stroke="none">
<path d="M377 1002 c-15 -16 -17 -50 -17 -271 0 -155 4 -260 10 -272 9 -16 22 -19 75 -19 l65 0 0 215 0 215 44 0 c43 0 45 -1 76 -55 17 -30 33 -55 36 -55 2 0 4 59 4 130 l0 130 -138 0 c-122 0 -141 -2 -155 -18z"/>
<path d="M767 1013 c-4 -3 -7 -100 -7 -215 l0 -208 -39 0 c-35 0 -41 4 -75 55 -20 30 -38 55 -41 55 -3 0 -5 -58 -5 -130 l0 -130 143 0 c98 0 147 4 155 12 9 9 12 85 12 280 0 254 -1 268 -19 278 -22 11 -114 14 -124 3z"/>
<path d="M1004 995 c-4 -8 -3 -26 0 -40 5 -20 13 -25 36 -25 l30 0 0 -80 0 -80 45 0 45 0 0 80 0 80 30 0 c28 0 30 2 30 40 l0 40 -105 0 c-85 0 -107 -3 -111 -15z"/>
<path d="M1294 1000 c-38 -15 -54 -50 -54 -116 0 -73 18 -102 70 -113 47 -10 108 2 131 26 47 47 30 176 -27 202 -29 13 -90 14 -120 1z"/>
<path d="M1497 1003 c-4 -3 -7 -57 -7 -120 l0 -113 81 0 c44 0 89 5 100 10 26 15 49 62 49 104 0 87 -47 126 -151 126 -36 0 -69 -3 -72 -7z"/>
<path d="M1790 978 c-19 -52 -70 -201 -70 -205 0 -2 18 -3 40 -3 27 0 43 5 46 15 4 10 20 15 44 15 24 0 40 -5 44 -15 3 -10 19 -15 47 -15 29 0 40 4 37 13 -3 6 -20 55 -38 107 -18 52 -38 101 -43 108 -5 6 -29 12 -52 12 -39 0 -44 -3 -55 -32z"/>
<path d="M1950 1000 c0 -6 14 -39 32 -73 17 -34 34 -82 37 -107 6 -45 6 -45 49 -48 l42 -3 0 36 c0 21 16 66 40 115 22 44 40 82 40 85 0 3 -18 5 -40 5 -36 0 -43 -4 -62 -36 l-21 -36 -19 36 c-17 32 -23 36 -58 36 -22 0 -40 -5 -40 -10z"/>
<path d="M1052 722 l-33 -3 3 -137 3 -137 47 -3 47 -3 3 53 3 53 34 -53 c33 -51 35 -53 75 -50 l41 3 3 137 c3 151 5 148 -65 140 -32 -4 -33 -5 -33 -56 l0 -51 -34 54 c-35 57 -39 59 -94 53z"/>
<path d="M1337 722 c-15 -3 -17 -21 -17 -143 l0 -139 114 0 c121 0 123 1 122 50 -1 24 -4 25 -68 28 -52 2 -68 6 -68 17 0 12 14 15 60 15 l60 0 0 35 0 35 -60 0 c-47 0 -60 3 -60 15 0 12 14 15 65 15 l65 0 0 35 c0 26 -4 35 -17 35 -10 1 -54 2 -99 3 -44 1 -88 1 -97 -1z"/>
<path d="M1839 722 c-36 -3 -37 -4 -44 -55 -6 -44 -8 -48 -16 -29 -10 26 -66 32 -75 7 -10 -26 -24 -5 -24 36 l0 39 -50 0 c-59 0 -57 9 -32 -160 l18 -115 42 -3 c42 -3 44 -2 59 37 9 23 19 41 22 41 3 0 14 -18 23 -41 17 -39 18 -40 60 -37 l42 3 18 110 c27 174 27 173 -43 167z"/>
<path d="M1985 717 c-42 -19 -57 -41 -58 -81 -1 -48 24 -73 90 -87 82 -19 74 -29 -17 -22 -75 6 -80 5 -80 -14 0 -78 189 -101 249 -30 17 21 22 54 11 83 -10 26 -54 50 -112 59 -66 10 -41 22 36 17 73 -4 75 -4 69 17 -14 53 -124 87 -188 58z"/>
</g>
</svg>