<svg xmlns="http://www.w3.org/2000/svg" version="1.0" preserveAspectRatio="xMidYMid meet" viewBox="50.29 63.51 237.81 65.32">
<metadata>
Created by potrace 1.16, written by Peter Selinger 2001-2019
</metadata>
<g transform="translate(0.000000,186.000000) scale(0.100000,-0.100000)" fill="#63769c" stroke="none">
<path d="M848 1209 c-18 -13 -28 -30 -28 -46 0 -19 -4 -24 -16 -19 -9 4 -22 1 -30 -5 -10 -8 7 -30 80 -102 51 -51 114 -124 140 -164 31 -47 52 -70 61 -67 7 3 12 11 9 18 -3 9 4 11 24 8 17 -2 40 1 52 8 20 11 22 18 18 83 -6 122 -74 224 -182 272 -77 36 -97 38 -128 14z"/>
<path d="M1270 1180 c0 -28 2 -30 40 -30 l39 0 3 -107 3 -108 33 -3 32 -3 0 110 0 111 40 0 c38 0 40 2 40 30 l0 30 -115 0 -115 0 0 -30z"/>
<path d="M1547 1203 c-3 -6 -1 -223 2 -265 1 -5 15 -8 31 -8 29 0 30 2 30 45 0 40 2 45 23 45 15 0 30 -13 50 -45 26 -41 32 -45 68 -45 l40 0 -31 45 -31 46 25 30 c36 43 35 92 -3 130 -28 28 -34 29 -115 29 -46 0 -87 -3 -89 -7z"/>
<path d="M1921 1188 c-5 -13 -19 -45 -31 -73 -12 -27 -35 -80 -51 -117 l-28 -68 34 0 c28 0 35 5 44 30 10 29 12 30 69 30 57 0 60 -1 72 -30 10 -25 18 -30 46 -30 31 0 33 2 24 23 -5 12 -31 74 -58 137 -46 110 -50 115 -80 118 -26 3 -34 -1 -41 -20z"/>
<path d="M2090 1205 c0 -11 93 -243 105 -261 10 -15 21 -20 38 -17 22 4 33 24 80 141 l55 137 -25 3 c-13 2 -30 1 -36 -1 -7 -2 -25 -43 -42 -91 -16 -47 -33 -86 -36 -86 -4 0 -21 41 -39 90 -32 89 -33 90 -66 90 -19 0 -34 -2 -34 -5z"/>
<path d="M2410 1070 l0 -140 105 0 c105 0 105 0 105 25 0 23 -3 24 -72 27 -71 3 -73 4 -76 31 l-3 27 65 0 66 0 0 30 0 30 -65 0 c-63 0 -65 1 -65 25 0 24 2 25 75 25 l75 0 0 30 0 30 -105 0 -105 0 0 -140z"/>
<path d="M2680 1070 l0 -140 101 0 100 0 -3 28 c-3 26 -5 27 -70 30 l-68 3 0 109 0 110 -30 0 -30 0 0 -140z"/>
<path d="M598 1130 c-21 -23 -47 -59 -58 -81 -27 -51 -43 -141 -35 -188 5 -31 12 -40 39 -49 18 -7 35 -12 39 -12 3 0 13 25 21 55 9 30 19 60 22 68 3 8 -5 18 -18 24 -22 10 -22 10 14 29 45 23 124 137 105 152 -16 13 -74 42 -83 42 -4 0 -24 -18 -46 -40z"/>
<path d="M714 1055 c-36 -53 -37 -57 -25 -96 14 -47 11 -55 -18 -40 -17 9 -22 8 -31 -9 -21 -39 -38 -110 -29 -116 6 -3 43 -9 84 -13 l75 -7 0 29 0 29 36 -27 c35 -27 40 -28 117 -22 44 4 85 11 90 16 20 20 -151 233 -235 292 l-27 20 -37 -56z"/>
<path d="M1300 850 c0 -28 2 -30 40 -30 l40 0 0 -110 0 -110 35 0 35 0 0 110 0 110 40 0 c38 0 40 2 40 30 l0 30 -115 0 -115 0 0 -30z"/>
<path d="M1608 740 c57 -139 57 -141 87 -138 28 3 33 10 82 128 28 69 52 131 52 138 1 7 -12 12 -34 12 -19 0 -35 -4 -35 -9 0 -23 -63 -172 -70 -164 -4 4 -20 45 -36 91 l-29 82 -37 0 -36 0 56 -140z"/>
<path d="M595 747 c-12 -60 -3 -80 49 -115 66 -44 145 -66 216 -59 70 6 149 39 185 78 27 27 28 30 15 68 -21 66 -17 64 -126 50 -81 -10 -104 -17 -126 -37 l-26 -24 -4 23 c-3 21 -10 25 -56 30 -29 4 -68 10 -87 13 -32 6 -34 5 -40 -27z"/>
</g>
</svg>