<svg xmlns="http://www.w3.org/2000/svg" version="1.0" preserveAspectRatio="xMidYMid meet" viewBox="39.61 34.1 169.01 50.83">
<metadata>
Created by potrace 1.16, written by Peter Selinger 2001-2019
</metadata>
<g transform="translate(0.000000,125.000000) scale(0.100000,-0.100000)" fill="#63769c" stroke="none">
<path d="M682 890 c-31 -29 -31 -99 1 -127 57 -53 101 -33 101 46 0 39 -5 56 -24 76 -28 30 -49 32 -78 5z"/>
<path d="M522 854 c-35 -24 -30 -84 9 -129 39 -44 65 -43 92 3 17 29 18 39 8 73 -8 26 -21 44 -41 54 -36 19 -40 19 -68 -1z"/>
<path d="M1014 843 c3 -10 8 -36 11 -58 16 -94 25 -115 49 -115 18 0 27 8 36 33 l13 32 10 -33 c8 -28 14 -33 36 -30 22 3 27 10 37 53 6 28 13 69 16 93 l6 43 -31 -3 c-26 -2 -33 -8 -38 -33 l-6 -30 -7 28 c-10 32 -46 39 -46 8 0 -11 -4 -23 -10 -26 -6 -4 -10 7 -10 24 0 29 -3 31 -36 31 -29 0 -34 -3 -30 -17z"/>
<path d="M1322 768 l3 -93 58 -3 57 -3 0 31 c0 25 -4 30 -25 30 -24 0 -25 2 -25 65 l0 65 -35 0 -36 0 3 -92z"/>
<path d="M1450 765 l0 -95 49 0 c73 0 96 23 96 95 0 72 -23 95 -96 95 l-49 0 0 -95z"/>
<path d="M837 799 c-23 -14 -47 -62 -47 -97 0 -61 71 -83 115 -36 25 27 30 46 26 94 -4 43 -52 63 -94 39z"/>
<path d="M423 732 c-6 -4 -16 -19 -22 -34 -26 -69 57 -161 117 -129 27 14 32 41 16 87 -21 62 -75 99 -111 76z"/>
<path d="M650 703 c-32 -12 -58 -46 -70 -90 -7 -24 -19 -47 -27 -50 -24 -10 -45 -63 -38 -99 11 -61 69 -80 143 -48 20 9 72 22 115 30 111 18 141 50 113 119 -11 26 -26 40 -53 51 -21 9 -51 31 -68 50 -30 35 -80 51 -115 37z"/>
<path d="M1046 628 c-5 -22 -23 -113 -31 -150 -2 -14 4 -18 31 -18 24 0 34 5 34 15 0 8 7 15 15 15 8 0 15 -7 15 -15 0 -10 10 -15 34 -15 l34 0 -14 73 c-23 125 -19 117 -69 117 -38 0 -45 -3 -49 -22z"/>
<path d="M1190 555 l0 -95 30 0 c26 0 30 4 31 28 l1 27 11 -27 c9 -23 17 -28 44 -28 l34 0 -3 93 -3 92 -30 0 c-26 0 -30 -4 -33 -30 l-4 -30 -13 33 c-11 24 -20 32 -40 32 l-25 0 0 -95z"/>
<path d="M1440 554 l0 -95 33 3 c28 3 32 6 29 31 -3 31 14 37 23 7 9 -27 19 -25 36 8 l14 27 3 -37 c3 -35 6 -38 33 -38 l29 0 0 95 0 95 -30 0 c-25 0 -33 -6 -47 -35 -9 -19 -20 -35 -23 -35 -3 0 -14 16 -23 35 -14 29 -22 35 -47 35 l-30 0 0 -96z"/>
<path d="M1666 568 c-21 -109 -21 -108 14 -108 20 0 30 5 30 15 0 8 6 15 14 15 8 0 16 -7 20 -15 3 -9 18 -15 36 -15 30 0 30 0 23 43 -3 23 -11 65 -17 92 l-11 50 -46 3 -46 3 -17 -83z"/>
<path d="M1820 555 l0 -95 60 0 c57 0 60 1 60 25 0 20 -5 25 -25 25 -22 0 -25 4 -25 39 0 21 -3 53 -6 70 -6 26 -11 31 -35 31 l-29 0 0 -95z"/>
<path d="M1954 625 c-24 -36 -11 -73 31 -91 45 -18 45 -27 0 -22 -33 4 -35 2 -35 -24 0 -27 1 -28 55 -28 47 0 57 3 71 25 23 35 6 71 -41 91 -44 18 -45 28 -1 21 29 -5 35 -2 40 16 8 31 -1 37 -54 37 -42 0 -52 -4 -66 -25z"/>
</g>
</svg>